<?xml version="1.0" standalone="no"?>
<!DOCTYPE svg PUBLIC "-//W3C//DTD SVG 20010904//EN"
 "http://www.w3.org/TR/2001/REC-SVG-20010904/DTD/svg10.dtd">
<svg version="1.0" xmlns="http://www.w3.org/2000/svg"
 width="195.000000pt" height="256.000000pt" viewBox="0 0 195.000000 256.000000"
 preserveAspectRatio="xMidYMid meet">

<g transform="translate(0.000000,256.000000) scale(0.100000,-0.100000)"
fill="#000000" stroke="none">
<path d="M947 2413 c-19 -38 -42 -92 -51 -122 -39 -133 -4 -303 87 -425 14
-19 16 -18 46 30 72 115 99 278 65 395 -21 70 -83 189 -99 189 -7 0 -28 -30
-48 -67z"/>
<path d="M480 2347 c0 -7 9 -41 21 -75 43 -128 157 -263 289 -341 39 -23 75
-41 79 -39 5 2 -4 35 -19 73 -16 39 -31 93 -35 120 -11 87 -14 94 -68 133
-103 77 -267 156 -267 129z"/>
<path d="M1395 2310 c-100 -49 -192 -112 -206 -140 -4 -8 -12 -48 -18 -89 -6
-41 -23 -101 -38 -133 -14 -32 -24 -60 -22 -63 3 -2 40 18 84 44 115 70 214
173 264 274 40 81 61 157 45 157 -5 0 -54 -22 -109 -50z"/>
<path d="M786 1800 c-279 -27 -434 -111 -499 -270 -19 -48 -22 -73 -22 -200 0
-120 4 -160 24 -234 127 -482 467 -818 773 -764 64 11 65 17 3 37 -103 35
-191 117 -242 227 -25 52 -28 70 -27 154 1 133 25 193 115 283 43 43 88 77
126 94 52 25 70 27 168 28 92 0 118 -4 162 -22 28 -13 56 -23 61 -23 6 0 24
25 41 55 38 67 124 137 204 167 32 11 60 25 63 29 9 15 -17 132 -40 184 -60
132 -180 206 -391 241 -110 18 -398 26 -519 14z m100 -106 c7 -28 0 -111 -10
-122 -14 -13 -26 24 -26 79 0 31 3 59 7 62 13 13 23 7 29 -19z m299 -64 c7
-42 -1 -96 -15 -105 -15 -9 -33 70 -26 109 9 49 32 47 41 -4z m279 -32 c13
-51 2 -132 -18 -125 -27 9 -28 147 -1 147 7 0 15 -10 19 -22z m-927 -110 c6
-52 -12 -107 -29 -90 -13 13 -16 121 -4 140 13 21 28 -1 33 -50z m687 -60 c10
-38 7 -116 -5 -124 -17 -10 -29 16 -29 68 0 72 20 106 34 56z m-522 -102 c1
-67 -16 -94 -32 -52 -5 15 -10 38 -10 51 0 13 5 36 10 51 16 41 32 16 32 -50z
m242 52 c9 -35 7 -101 -4 -118 -9 -13 -11 -13 -20 0 -11 17 -14 123 -3 133 12
12 21 7 27 -15z m-409 -278 c0 -62 -8 -81 -27 -62 -12 12 -15 113 -3 132 15
24 30 -11 30 -70z m289 -22 c12 -47 3 -128 -15 -128 -14 0 -29 72 -23 112 7
42 28 51 38 16z m-177 -250 c5 -48 -12 -107 -27 -92 -16 16 -23 97 -10 128 14
38 31 23 37 -36z"/>
</g>
</svg>
